<svg xmlns="http://www.w3.org/2000/svg" viewBox="0 0 800 800" role="img" aria-labelledby="title desc">
  <title id="title">Aaditya Devadiga portrait illustration</title>
  <desc id="desc">Stylized portrait of Aaditya Devadiga in a dark blazer and light shirt.</desc>
  <defs>
    <linearGradient id="bg" x1="0" y1="0" x2="1" y2="1">
      <stop offset="0%" stop-color="#f3f4f6"/>
      <stop offset="100%" stop-color="#ffffff"/>
    </linearGradient>
    <linearGradient id="blazer" x1="0" y1="0" x2="1" y2="1">
      <stop offset="0%" stop-color="#1b2230"/>
      <stop offset="100%" stop-color="#090d15"/>
    </linearGradient>
    <linearGradient id="shirt" x1="0" y1="0" x2="0" y2="1">
      <stop offset="0%" stop-color="#f8edd8"/>
      <stop offset="100%" stop-color="#eadbbd"/>
    </linearGradient>
    <linearGradient id="skin" x1="0" y1="0" x2="0" y2="1">
      <stop offset="0%" stop-color="#c98e67"/>
      <stop offset="100%" stop-color="#b97950"/>
    </linearGradient>
    <filter id="shadow" x="-20%" y="-20%" width="140%" height="140%">
      <feDropShadow dx="0" dy="10" stdDeviation="18" flood-color="#000000" flood-opacity="0.18"/>
    </filter>
  </defs>
  <rect width="800" height="800" fill="url(#bg)"/>
  <g filter="url(#shadow)">
    <path d="M188 680c22-82 71-138 146-170h132c72 28 122 84 146 170z" fill="url(#blazer)"/>
    <path d="M329 513h140l46 167H286z" fill="url(#shirt)"/>
    <path d="M365 458h76v84c0 15-17 28-38 28s-38-13-38-28z" fill="url(#skin)"/>
    <path d="M276 346c0-87 55-155 127-155 74 0 126 69 126 155 0 90-54 159-126 159-73 0-127-68-127-159z" fill="url(#skin)"/>
    <path d="M280 365c-18-72 3-138 47-180 29-28 70-45 113-45 59 0 106 28 133 73 17 28 25 61 23 94-23-21-52-28-84-26-44 2-74-15-99-37-26 42-69 72-133 81z" fill="#151922"/>
    <path d="M510 363c2 15 1 29-1 41-10-4-21-15-23-31-3-18 6-34 19-35 1 8 3 16 5 25z" fill="url(#skin)"/>
    <path d="M292 362c-1 13-1 25 1 36 8-4 18-14 20-28 3-16-4-30-16-31-2 8-4 15-5 23z" fill="url(#skin)"/>
    <ellipse cx="361" cy="370" rx="12" ry="8" fill="#1a1b20"/>
    <ellipse cx="448" cy="370" rx="12" ry="8" fill="#1a1b20"/>
    <path d="M341 430c18 18 36 25 63 25 25 0 44-7 60-23" fill="none" stroke="#7f3f27" stroke-width="12" stroke-linecap="round"/>
    <path d="M327 331c20-17 42-24 64-20" fill="none" stroke="#1d2028" stroke-width="10" stroke-linecap="round"/>
    <path d="M421 313c18-10 39-9 59 5" fill="none" stroke="#1d2028" stroke-width="10" stroke-linecap="round"/>
    <path d="M345 257c26 27 74 50 138 55 24 2 50-1 74-8-18-72-79-123-157-123-69 0-126 35-155 92 40 1 74-7 100-16z" fill="#1b2029"/>
  </g>
</svg>
